<?xml version="1.0" encoding="UTF-8"?>
<svg width="50px" height="34px" viewBox="0 0 50 34" version="1.1" xmlns="http://www.w3.org/2000/svg" xmlns:xlink="http://www.w3.org/1999/xlink">
    <!-- Generator: Sketch 50.2 (55047) - http://www.bohemiancoding.com/sketch -->
    <title>article</title>
    <desc>Created with Sketch.</desc>
    <defs></defs>
    <g id="Page-1" stroke="none" stroke-width="1" fill="none" fill-rule="evenodd">
        <g id="article" fill="#4A4A4A" fill-rule="nonzero">
            <path d="M2,2 L2,26 C2,29.3137085 4.6862915,32 8,32 L42,32 L42,2 L2,2 Z M44,4 L50,4 L50,30 C50,32.209139 48.209139,34 46,34 C45.2714257,34 44.5883467,33.8052114 44,33.4648712 L44,34 L8,34 C3.581722,34 0,30.418278 0,26 L0,0 L44,0 L44,4 Z M44,6 L44,30 C44,31.1045695 44.8954305,32 46,32 C47.1045695,32 48,31.1045695 48,30 L48,6 L44,6 Z M22,5 L22,20 L39,20 L39,5 L22,5 Z M24,7 L37,7 L37,18 L24,18 L24,7 Z M5,5 L5,7 L18,7 L18,5 L5,5 Z M5,9 L5,11 L18,11 L18,9 L5,9 Z M5,13 L5,15 L18,15 L18,13 L5,13 Z M5,23 L5,25 L39,25 L39,23 L5,23 Z M5,18 L5,20 L18,20 L18,18 L5,18 Z" id="Combined-Shape"></path>
        </g>
    </g>
</svg>