<?xml version="1.0" encoding="UTF-8"?>
<svg width="55px" height="42px" viewBox="0 0 55 42" version="1.1" xmlns="http://www.w3.org/2000/svg" xmlns:xlink="http://www.w3.org/1999/xlink">
    <!-- Generator: Sketch 47.1 (45422) - http://www.bohemiancoding.com/sketch -->
    <title>book</title>
    <desc>Created with Sketch.</desc>
    <defs></defs>
    <g id="Page-1" stroke="none" stroke-width="1" fill="none" fill-rule="evenodd">
        <g id="book" fill-rule="nonzero" fill="#4A4A4A">
            <path d="M52.7083333,4.58333333 L52.7083333,36.3985417 L50.4166667,36.6666667 L50.4166667,0 C41.490625,0.272708333 33.2177083,1.74625 27.4954167,5.3075 C21.7754167,1.74625 13.5116667,0.272708333 4.58333333,0 L4.58333333,36.6666667 L2.29166667,36.3985417 L2.29166667,4.58333333 L0,4.58333333 L0,38.9583333 L20.755625,38.9583333 C24.145,38.9583333 24.51625,41.25 27.4954167,41.25 C30.48375,41.25 30.8435417,38.9583333 34.2375,38.9583333 L55,38.9583333 L55,4.58333333 L52.7083333,4.58333333 Z M25.2083333,37.5833333 C20.2390833,35.6488179 14.6442083,34.4034109 7.33333333,33.8646534 L7.33333333,3.66666667 C13.3393333,4.16031893 20.0909762,5.35811476 25.2083333,8.48290851 L25.2083333,37.5833333 Z M47.6666667,33.8646534 C40.3557917,34.4034109 34.7609167,35.6488179 29.7916667,37.5833333 L29.7916667,8.48290851 C34.9090238,5.35811476 41.6606667,4.16031893 47.6666667,3.66666667 L47.6666667,33.8646534 L47.6666667,33.8646534 Z" id="Shape"></path>
        </g>
    </g>
</svg>