<?xml version="1.0" encoding="UTF-8"?>
<svg width="43px" height="40px" viewBox="0 0 43 40" version="1.1" xmlns="http://www.w3.org/2000/svg" xmlns:xlink="http://www.w3.org/1999/xlink">
    <!-- Generator: Sketch 50.2 (55047) - http://www.bohemiancoding.com/sketch -->
    <title>Bubbles - simple-line-icons Copy</title>
    <desc>Created with Sketch.</desc>
    <defs></defs>
    <g id="Page-1" stroke="none" stroke-width="1" fill="none" fill-rule="evenodd">
        <path d="M17.8466797,27.2001953 L16.9228516,27.2001953 C16.6149073,27.2001953 16.3139663,27.1931967 16.0200195,27.1791992 C15.7260727,27.1652018 15.38314,27.1302086 14.9912109,27.0742188 C14.7952464,27.2981782 14.3683301,27.6761041 13.7104492,28.2080078 C13.0525683,28.7399115 12.2757206,29.2998017 11.3798828,29.8876953 C10.484045,30.4755889 9.53923023,31.0074846 8.54541016,31.4833984 C7.55159008,31.9593123 6.62077257,32.2672519 5.75292969,32.4072266 L5.7109375,32.4072266 L5.62695312,32.4282227 C5.57096326,32.4422201 5.51497424,32.4492188 5.45898438,32.4492188 C5.17903506,32.4492188 4.94808034,32.351238 4.76611328,32.1552734 C4.58414623,31.9593089 4.49316406,31.7213556 4.49316406,31.4414062 C4.49316406,31.3574215 4.50016269,31.2874352 4.51416016,31.2314453 C4.52815762,31.1754554 4.54915351,31.1194664 4.57714844,31.0634766 L4.53515625,31.0634766 C4.87109543,30.5035779 5.3400035,29.6427467 5.94189453,28.480957 C6.54378556,27.3191674 6.84472656,26.2483773 6.84472656,25.2685547 L6.84472656,25.1845703 C5.69693437,24.5966767 4.68913194,23.8688194 3.82128906,23.0009766 C2.95344618,22.1331337 2.23958613,21.1813203 1.6796875,20.1455078 C1.11978887,19.1096953 0.699871191,18.0179094 0.419921875,16.8701172 C0.139972559,15.722325 0,14.5885473 0,13.46875 C0,11.6490794 0.454910815,9.94141423 1.36474609,8.34570312 C2.27458137,6.74999202 3.52733577,5.36426369 5.12304688,4.18847656 C6.71875798,3.01268943 8.58039301,2.08187192 10.7080078,1.39599609 C12.8356226,0.710120269 15.1171753,0.3671875 17.5527344,0.3671875 C19.9602985,0.3671875 22.2208553,0.710120269 24.3344727,1.39599609 C26.44809,2.08187192 28.2887291,3.01268943 29.8564453,4.18847656 C31.4241615,5.36426369 32.6629186,6.74999202 33.5727539,8.34570312 C34.4825892,9.94141423 34.9375,11.6490794 34.9375,13.46875 C34.9654949,15.51238 34.5455773,17.3810137 33.6777344,19.074707 C32.8098915,20.7684004 31.6061275,22.2171164 30.0664062,23.4208984 C28.526685,24.6246805 26.7070417,25.555498 24.6074219,26.2133789 C22.507802,26.8712598 20.2542438,27.2001953 17.8466797,27.2001953 Z M13.8994141,24.3027344 L15.3691406,24.4287109 C16.0130241,24.5126957 16.6009088,24.5546875 17.1328125,24.5546875 L17.9306641,24.5546875 C19.9742941,24.5546875 21.8709222,24.281741 23.6206055,23.7358398 C25.3702887,23.1899387 26.8819923,22.4200896 28.1557617,21.4262695 C29.4295311,20.4324495 30.4303349,19.25668 31.1582031,17.8989258 C31.8860713,16.5411716 32.25,15.0644611 32.25,13.46875 C32.25,12.0130136 31.8650755,10.6552797 31.0952148,9.39550781 C30.3253542,8.13573589 29.2825587,7.0369513 27.9667969,6.09912109 C26.6510351,5.16129088 25.0973397,4.41943632 23.3056641,3.87353516 C21.5139884,3.32763399 19.5963644,3.0546875 17.5527344,3.0546875 C15.5091044,3.0546875 13.5844817,3.32763399 11.7788086,3.87353516 C9.9731355,4.41943632 8.39144559,5.16129088 7.03369141,6.09912109 C5.67593722,7.0369513 4.61214578,8.13573589 3.84228516,9.39550781 C3.07242454,10.6552797 2.6875,12.0130136 2.6875,13.46875 C2.6875,15.2044358 3.12141493,16.9540927 3.98925781,18.7177734 C4.85710069,20.4814541 6.21483451,21.8391879 8.0625,22.7910156 L9.53222656,23.546875 L9.40625,25.1845703 L9.32226562,25.9194336 C9.26627576,26.4093449 9.0003279,27.2981706 8.52441406,28.5859375 C9.28027722,28.1380186 10.0291304,27.6131215 10.7709961,27.0112305 C11.5128618,26.4093394 11.9817699,25.9824231 12.1777344,25.7304688 L13.8994141,24.3027344 Z M43,24.3027344 C43,26.2623796 42.5240933,27.9910407 41.5722656,29.4887695 C40.6204379,30.9864984 39.1507261,32.2392528 37.1630859,33.2470703 C37.1630859,33.2750652 37.1630859,33.2960611 37.1630859,33.3100586 C37.1630859,33.3240561 37.1630859,33.3310547 37.1630859,33.3310547 C37.1630859,34.1988976 37.331053,35.2067 37.6669922,36.3544922 C38.0029314,37.5022844 38.310871,38.3141252 38.5908203,38.7900391 C38.6188152,38.8460289 38.6398111,38.9020179 38.6538086,38.9580078 C38.6678061,39.0139977 38.6748047,39.0699867 38.6748047,39.1259766 C38.6748047,39.3779309 38.5908212,39.5878898 38.4228516,39.7558594 C38.254882,39.923829 38.0449231,40.0078125 37.7929688,40.0078125 C37.7649738,40.0078125 37.7229821,40.0078125 37.6669922,40.0078125 C37.6110023,40.0078125 37.5830078,40.0078125 37.5830078,40.0078125 C37.5550129,40.0078125 37.5410156,40.0078125 37.5410156,40.0078125 C36.0572842,39.7558581 34.5595779,39.0000063 33.0478516,37.7402344 C31.5361253,36.4804625 30.6263036,35.6546244 30.3183594,35.2626953 C29.9824202,35.2906902 29.6884778,35.3116861 29.4365234,35.3256836 C29.1845691,35.3396811 28.9186212,35.3466797 28.6386719,35.3466797 C28.4986972,35.3466797 28.3657233,35.3466797 28.2397461,35.3466797 C28.1137689,35.3466797 27.980795,35.3466797 27.8408203,35.3466797 C26.4690687,35.3466797 25.1743225,35.227703 23.956543,34.9897461 C22.7387634,34.7517892 21.5979871,34.4018578 20.5341797,33.9399414 C19.4703723,33.478025 18.5045616,32.9181348 17.6367188,32.2602539 C16.7688759,31.602373 15.9990268,30.8675171 15.3271484,30.0556641 C15.3831383,29.9996742 16.1179942,29.9716797 17.5317383,29.9716797 C18.9454823,29.9716797 19.4983739,29.9856769 19.1904297,30.0136719 C20.3382219,30.9095097 21.6119722,31.5743793 23.0117188,32.0083008 C24.4114653,32.4422222 26.0211498,32.6591797 27.8408203,32.6591797 C27.8408203,32.6591797 28.1137668,32.6591797 28.659668,32.6591797 C29.2055691,32.6591797 29.6184882,32.6311852 29.8984375,32.5751953 L31.3261719,32.3652344 C31.3261719,32.3652344 31.5851211,32.7151658 32.1030273,33.4150391 C32.6209336,34.1149124 33.5377538,34.9407504 34.8535156,35.8925781 C34.7415359,35.4726542 34.6575524,34.6468161 34.6015625,33.4150391 C34.5455726,32.1832621 34.5175781,31.5673828 34.5175781,31.5673828 L35.8193359,30.9375 C37.415047,30.125647 38.562822,29.1808322 39.2626953,28.1030273 C39.9625686,27.0252225 40.3125,25.7584708 40.3125,24.3027344 C40.3125,23.1269472 40.1095398,22.1051476 39.7036133,21.2373047 C39.2976868,20.3694618 38.5208391,19.5296265 37.3730469,18.7177734 C37.5130215,18.2698545 37.6459955,17.7939478 37.7719727,17.2900391 C37.8979498,16.7861303 37.988932,16.2962263 38.0449219,15.8203125 C39.8086026,16.856125 41.0753542,18.0738862 41.8452148,19.4736328 C42.6150755,20.8733794 43,22.4830638 43,24.3027344 Z" id="Bubbles---simple-line-icons-Copy" fill="#4A4A4A"></path>
    </g>
</svg>