<?xml version="1.0" encoding="UTF-8"?>
<svg width="56px" height="42px" viewBox="0 0 56 42" version="1.1" xmlns="http://www.w3.org/2000/svg" xmlns:xlink="http://www.w3.org/1999/xlink">
    <!-- Generator: Sketch 47.1 (45422) - http://www.bohemiancoding.com/sketch -->
    <title>condition</title>
    <desc>Created with Sketch.</desc>
    <defs></defs>
    <g id="Page-1" stroke="none" stroke-width="1" fill="none" fill-rule="evenodd">
        <g id="condition" fill="#4A4A4A">
            <path d="M7.23012727,41.3611661 C3.17872563,41.0078873 1.06822476e-14,37.5925337 1.77635684e-15,33.4314381 C-8.3746217e-17,32.7475984 0.554361655,32.1932367 1.23820141,32.1932367 L1.23820141,32.1932367 L27.994503,32.1932367 C28.6783427,32.1932367 29.2327044,32.7475984 29.2327044,33.4314381 C29.2327044,36.4598713 31.6768355,38.9149015 34.6918239,38.9149015 C37.6644931,38.9149015 40.0822179,36.5283067 40.149504,33.5586179 C40.1468163,33.5253157 40.1454464,33.4916414 40.1454464,33.4576471 L40.1454464,8.02210022 C40.1454464,7.98176688 40.1473749,7.94188396 40.1511446,7.90253863 C40.1659092,5.7999473 40.9922686,3.89112367 42.331221,2.47640282 L23.6029813,2.47640282 C22.9191415,2.47640282 22.3647799,1.92204117 22.3647799,1.23820141 L22.3647799,1.23820141 L22.3647799,1.23820141 C22.3647799,0.554361655 22.9191415,1.25619325e-16 23.6029813,0 L47.7177734,0 L47.7177734,6.66133815e-16 C47.7518898,6.5986673e-16 47.785684,0.00137978477 47.8191031,0.00408659524 C47.9042273,0.00136905381 47.9896903,0 48.0754717,0 C52.4520678,0 56,3.5637535 56,7.95986622 C55.9435372,7.95986622 55.8848115,7.95986622 55.8238994,7.95986622 C55.8238994,8.64370598 55.2695377,9.19806763 54.585698,9.19806763 L42.6218492,9.19806763 L42.6218492,33.4576471 C42.6218492,33.5025444 42.6194596,33.5468836 42.6148007,33.5905444 C42.532655,37.7990341 39.1987967,41.2069683 35.0327111,41.3840724 L35.0440252,41.3913043 L7.22012579,41.3913043 L7.23012727,41.3611661 Z M23.5145383,8.8442958 L35.655273,8.8442958 C36.2902671,8.8442958 36.8050314,9.35906019 36.8050314,9.99405425 C36.8050314,10.6290483 36.2902671,11.1438127 35.655273,11.1438127 L23.5145383,11.1438127 C22.8795443,11.1438127 22.3647799,10.6290483 22.3647799,9.99405425 L22.3647799,9.99405425 L22.3647799,9.99405425 C22.3647799,9.35906019 22.8795443,8.8442958 23.5145383,8.8442958 Z M23.5145383,13.4433296 L35.655273,13.4433296 C36.2902671,13.4433296 36.8050314,13.958094 36.8050314,14.5930881 C36.8050314,15.2280821 36.2902671,15.7428465 35.655273,15.7428465 L23.5145383,15.7428465 C22.8795443,15.7428465 22.3647799,15.2280821 22.3647799,14.5930881 L22.3647799,14.5930881 L22.3647799,14.5930881 C22.3647799,13.958094 22.8795443,13.4433296 23.5145383,13.4433296 Z M23.5145383,18.0423634 L35.655273,18.0423634 C36.2902671,18.0423634 36.8050314,18.5571278 36.8050314,19.1921219 C36.8050314,19.8271159 36.2902671,20.3418803 35.655273,20.3418803 L23.5145383,20.3418803 C22.8795443,20.3418803 22.3647799,19.8271159 22.3647799,19.1921219 C22.3647799,18.5571278 22.8795443,18.0423634 23.5145383,18.0423634 Z" id="Combined-Shape"></path>
            <circle id="Oval-4" cx="14.2028986" cy="5.27536232" r="5.27536232"></circle>
            <path d="M10.5507246,12.173913 C12.0386473,12.9855072 13.52657,13.3913043 15.0144928,13.3913043 C16.5024155,13.3913043 17.9903382,12.9855072 19.4782609,12.173913 L19.4782609,26.7826087 L15.0144928,22.4347826 L10.5507246,26.7826087 L10.5507246,12.173913 Z" id="Rectangle-7"></path>
        </g>
    </g>
</svg>