<?xml version="1.0" encoding="UTF-8"?>
<svg width="25px" height="40px" viewBox="0 0 25 40" version="1.1" xmlns="http://www.w3.org/2000/svg" xmlns:xlink="http://www.w3.org/1999/xlink">
    <!-- Generator: Sketch 50.2 (55047) - http://www.bohemiancoding.com/sketch -->
    <title>Combined Shape</title>
    <desc>Created with Sketch.</desc>
    <defs></defs>
    <g id="Page-1" stroke="none" stroke-width="1" fill="none" fill-rule="evenodd">
        <path d="M12.3999874,1.92901557 C12.360957,1.96788079 12.283761,2 12.2241167,2 C12.1644718,2 12.0872748,1.96788015 12.0475019,1.92827223 L12.2241143,2.10451755 L12.3999874,1.92901557 Z M3.01069514,13.4614967 C2.6745272,13.7976646 2.23922967,13.9753371 1.76226777,13.9753371 C1.28530586,13.9753371 0.850008337,13.7976646 0.513840398,13.4614967 C0.177672458,13.1253288 0,12.6900312 0,12.2130693 C0,11.7361074 0.177672458,11.3008099 0.514587472,10.9638957 L10.9867367,0.513840398 C11.3210425,0.179534565 11.7519255,0 12.2241167,0 C12.6963079,0 13.1271909,0.179534565 13.4607605,0.513104978 L24.089056,11.119305 C24.2612563,11.2915053 24.3937536,11.4946678 24.4810052,11.7215219 C24.5603442,11.9278034 24.6028964,12.1405642 24.6028964,12.356685 C24.6028964,12.5823694 24.5619477,12.8034922 24.4810052,13.0139428 C24.3937536,13.2407969 24.2612563,13.4439594 24.089056,13.6161597 C23.7547502,13.9504655 23.3238672,14.1300001 22.851676,14.1300001 C22.3794848,14.1300001 21.9486018,13.9504655 21.614296,13.6161597 L12.2249036,4.22676738 L3.01069514,13.4614967 Z M12.202909,37.2009845 C12.2419394,37.1621193 12.3191354,37.1300001 12.3787797,37.1300001 C12.4384246,37.1300001 12.5156216,37.16212 12.5553945,37.2017279 L12.378782,37.0254826 L12.202909,37.2009845 Z M21.5922013,25.6685034 C21.9283692,25.3323355 22.3636667,25.154663 22.8406286,25.154663 C23.3175905,25.154663 23.7528881,25.3323355 24.089056,25.6685034 C24.4252239,26.0046714 24.6028964,26.4399689 24.6028964,26.9169308 C24.6028964,27.3938927 24.4252239,27.8291902 24.0883089,28.1661044 L13.6161597,38.6161597 C13.2818539,38.9504655 12.8509709,39.1300001 12.3787797,39.1300001 C11.9065885,39.1300001 11.4757055,38.9504655 11.1421359,38.6168951 L0.513840398,28.0106951 C0.341640041,27.8384948 0.209142776,27.6353323 0.121891188,27.4084782 C0.0425521457,27.2021967 0,26.9894359 0,26.7733151 C0,26.5476307 0.0409486634,26.3265079 0.121891188,26.1160574 C0.209142776,25.8892032 0.341640041,25.6860408 0.513840398,25.5138404 C0.84814623,25.1795346 1.27902919,25 1.75122041,25 C2.22341163,25 2.65429459,25.1795346 2.98860042,25.5138404 L12.3779928,34.9032327 L21.5922013,25.6685034 Z" id="Combined-Shape" fill="#4A4A4A" fill-rule="nonzero"></path>
    </g>
</svg>