<?xml version="1.0" encoding="UTF-8"?>
<svg width="46px" height="47px" viewBox="0 0 46 47" version="1.1" xmlns="http://www.w3.org/2000/svg" xmlns:xlink="http://www.w3.org/1999/xlink">
    <!-- Generator: Sketch 50.2 (55047) - http://www.bohemiancoding.com/sketch -->
    <title>check - simple-line-icons</title>
    <desc>Created with Sketch.</desc>
    <defs></defs>
    <g id="Page-1" stroke="none" stroke-width="1" fill="none" fill-rule="evenodd">
        <path d="M23,0.875 C26.174495,0.875 29.1617699,1.47395234 31.9619141,2.671875 C34.7620583,3.86979766 37.2027891,5.5094297 39.2841797,7.59082031 C41.3655703,9.67221093 43.0052023,12.1129417 44.203125,14.9130859 C45.4010477,17.7132301 46,20.700505 46,23.875 C46,27.049495 45.4010477,30.0367699 44.203125,32.8369141 C43.0052023,35.6370583 41.3655703,38.0777891 39.2841797,40.1591797 C37.2027891,42.2405703 34.7620583,43.8802023 31.9619141,45.078125 C29.1617699,46.2760477 26.174495,46.875 23,46.875 C19.825505,46.875 16.8382301,46.2760477 14.0380859,45.078125 C11.2379417,43.8802023 8.79721093,42.2405703 6.71582031,40.1591797 C4.6344297,38.0777891 2.99479766,35.6370583 1.796875,32.8369141 C0.598952344,30.0367699 0,27.049495 0,23.875 C0,20.700505 0.598952344,17.7132301 1.796875,14.9130859 C2.99479766,12.1129417 4.6344297,9.67221093 6.71582031,7.59082031 C8.79721093,5.5094297 11.2379417,3.86979766 14.0380859,2.671875 C16.8382301,1.47395234 19.825505,0.875 23,0.875 Z M23,44.0449219 C25.7851702,44.0449219 28.3980998,43.5133517 30.8388672,42.4501953 C33.2796346,41.387039 35.4059154,39.9420664 37.2177734,38.1152344 C39.0296315,36.2884023 40.4671171,34.1546346 41.5302734,31.7138672 C42.5934298,29.2730998 43.125,26.6601702 43.125,23.875 C43.125,21.0898298 42.5934298,18.4769002 41.5302734,16.0361328 C40.4671171,13.5953654 39.0296315,11.4690846 37.2177734,9.65722656 C35.4059154,7.84536854 33.2796346,6.40788292 30.8388672,5.34472656 C28.3980998,4.28157021 25.7851702,3.75 23,3.75 C20.2148298,3.75 17.6019002,4.28157021 15.1611328,5.34472656 C12.7203654,6.40788292 10.5940846,7.84536854 8.78222656,9.65722656 C6.97036854,11.4690846 5.53288292,13.5953654 4.46972656,16.0361328 C3.40657021,18.4769002 2.875,21.0898298 2.875,23.875 C2.875,26.6601702 3.40657021,29.2730998 4.46972656,31.7138672 C5.53288292,34.1546346 6.97036854,36.2884023 8.78222656,38.1152344 C10.5940846,39.9420664 12.7203654,41.387039 15.1611328,42.4501953 C17.6019002,43.5133517 20.2148298,44.0449219 23,44.0449219 Z M32.1640625,15.4746094 C32.4635432,15.1751287 32.8079408,15.0253906 33.1972656,15.0253906 C33.5865905,15.0253906 33.9309881,15.1751287 34.2304688,15.4746094 C34.5000013,15.744142 34.6347656,16.0810527 34.6347656,16.4853516 C34.6347656,16.8896505 34.5000013,17.2265612 34.2304688,17.4960938 L19.9003906,31.9160156 C19.8704426,31.9459637 19.8404949,31.9759113 19.8105469,32.0058594 C19.7805988,32.0358074 19.7506512,32.0657551 19.7207031,32.0957031 C19.4511705,32.3951838 19.1142598,32.5449219 18.7099609,32.5449219 C18.305662,32.5449219 17.9687513,32.3951838 17.6992188,32.0957031 L10.5566406,24.9980469 C10.287108,24.7285143 10.1523438,24.3916036 10.1523438,23.9873047 C10.1523438,23.5830058 10.287108,23.2460951 10.5566406,22.9765625 C10.8561213,22.6770818 11.2005189,22.5273438 11.5898438,22.5273438 C11.9791686,22.5273438 12.3235662,22.6770818 12.6230469,22.9765625 L18.6875,29.0410156 L32.1640625,15.4746094 Z" id="check---simple-line-icons" fill="#000000"></path>
    </g>
</svg>