<?xml version="1.0" encoding="UTF-8"?>
<svg width="249px" height="276px" viewBox="0 0 249 276" version="1.1" xmlns="http://www.w3.org/2000/svg" xmlns:xlink="http://www.w3.org/1999/xlink" style="background: #FFFFFF;">
    <!-- Generator: Sketch 50.2 (55047) - http://www.bohemiancoding.com/sketch -->
    <title>empty</title>
    <desc>Created with Sketch.</desc>
    <defs>
        <linearGradient x1="50%" y1="55.2292158%" x2="50%" y2="3.061617e-15%" id="linearGradient-1">
            <stop stop-color="#FFFFFF" offset="0%"></stop>
            <stop stop-color="#C1DEFF" offset="100%"></stop>
        </linearGradient>
    </defs>
    <g id="Page-1" stroke="none" stroke-width="1" fill="none" fill-rule="evenodd">
        <ellipse id="Oval-16" fill-opacity="0.50999999" fill="#B8E986" cx="128.5" cy="260.5" rx="115.5" ry="12.5"></ellipse>
        <circle id="Oval-15" fill="url(#linearGradient-1)" cx="122.5" cy="109.5" r="106.5"></circle>
        <polyline id="Rectangle-38" stroke="#4A4A4A" stroke-width="2" points="230 137 230 142 140 142 140 137 140 137"></polyline>
        <rect id="Rectangle-36" stroke="#4A4A4A" x="151.5" y="96.5" width="67" height="41"></rect>
        <path d="M218.5,136.5 L223.5,136.5 L223.5,103 C223.5,100.130979 221.30325,97.7750359 218.5,97.5224215 L218.5,136.5 Z" id="Rectangle-37" stroke="#4A4A4A"></path>
        <path d="M49.4310345,168.965517 C48.816092,170.183908 48.5086207,171.402299 48.5086207,172.62069 C48.5086207,174.448276 45.7413793,196.37931 40.2068966,203.689655 C34.6724138,211 8.84482759,225.62069 7,229.275862 C12.5344828,227.448276 23.6034483,221.965517 27.2931034,221.965517 C30.9827586,221.965517 38.362069,216.482759 40.2068966,220.137931 C42.0517241,223.793103 42.0517241,231.103448 40.2068966,232.931034 C38.9770115,234.149425 37.1321839,238.413793 34.6724138,245.724138 L40.2068966,242.068966 L38.362069,249.37931 L42.0517241,247.551724 L43.8965517,253.034483 L48.5086207,260.344828 L51.2758621,264 L58.6551724,264 C54.9655172,259.126437 53.7356322,254.862069 54.9655172,251.206897 C56.8103448,245.724138 56.8103448,229.275862 60.5,229.275862 C62.9597701,229.275862 64.1896552,229.885057 64.1896552,231.103448 L66.0344828,221.965517 L69.7241379,223.793103 L69.7241379,214.655172 C68.4942529,212.218391 69.1091954,210.390805 71.5689655,209.172414 C74.0287356,207.954023 75.8735632,207.954023 77.1034483,209.172414 C78.3333333,203.08046 78.9482759,199.425287 78.9482759,198.206897 C78.9482759,196.988506 80.7931034,196.37931 84.4827586,196.37931 C83.2528736,191.505747 83.2528736,188.45977 84.4827586,187.241379 C86.3275862,185.413793 88.1724138,181.758621 91.862069,178.103448 C95.5517241,174.448276 101.086207,165.310345 102.931034,165.310345 C104.775862,165.310345 106.62069,167.137931 108.465517,167.137931 C110.310345,167.137931 114,163.482759 114,161.655172 C114,159.827586 112.155172,159.827586 110.310345,159.827586 C108.465517,159.827586 102.931034,158 99.2413793,158 C95.5517241,158 86.3275862,163.482759 84.4827586,163.482759 C82.637931,163.482759 78.9482759,161.655172 78.9482759,159.827586" id="Path-23" stroke="#4A4A4A" fill="#FFFFFF"></path>
        <path d="M53.1065574,139.323049 C49.4180328,144.794918 43.8852459,152.090744 45.7295082,155.738657 C47.5737705,159.38657 53.2897201,170.330309 51.2622951,170.330309" id="Path-24" stroke="#4A4A4A"></path>
        <path d="M62.3278689,130.203267 C72.1639344,139.931034 77.6967213,144.794918 78.9262295,144.794918 C80.7704918,144.794918 86.3032787,144.794918 89.9918033,142.970962 C93.6803279,141.147005 108.434426,133.85118 110.278689,133.85118 C112.122951,133.85118 113.967213,139.323049 112.122951,139.323049 C110.278689,139.323049 95.5245902,155.738657 93.6803279,157.562613 C92.4508197,158.778584 89.9918033,160.602541 86.3032787,163.034483" id="Path-25" stroke="#4A4A4A"></path>
        <path d="M62.6,130 C68.7333333,128.8 73.0266667,127.6 75.48,126.4 C79.16,124.6 81,110.2 81,110.2 C81,110.2 80.3866667,107.8 79.16,103 L73.64,104.8 C71.1866667,106 68.7333333,106.6 66.28,106.6 C62.6,106.6 60.76,103 58.92,104.8 C57.08,106.6 55.24,110.2 53.4,110.2 C51.56,110.2 42.36,106.6 40.52,108.4 C38.68,110.2 35,122.8 35,122.8 C35,122.8 42.36,126.4 44.2,126.4 C46.04,126.4 47.88,112 47.88,112" id="Path-26" stroke="#4A4A4A"></path>
        <path d="M40.1967213,123.662949 C40.1967213,131.255273 38.352459,132.773738 40.1967213,134.292203 C42.0409836,135.810668 43.8852459,135.810668 43.8852459,137.329133 C43.8852459,138.847597 39.3770492,141.884527 41.6311475,143.402992 C43.8852459,144.921457 47.5737705,146.439922 49.4180328,144.921457 C50.647541,143.909147 51.8770492,142.390682 53.1065574,140.366062" id="Path-27" stroke="#4A4A4A"></path>
        <path d="M55,108 L53,113" id="Path-28" stroke="#979797"></path>
        <polygon id="Path-29" stroke="#4A4A4A" fill="#0096DC" points="59 112 63 112 63 108 61 110"></polygon>
        <path d="M71.4610656,152.647913 C71.4610656,150.823956 69.6168033,149 73.3053279,149 C76.9938525,149 80.682377,154.471869 80.682377,156.295826" id="Path-30" stroke="#4A4A4A"></path>
        <polygon id="Path-31" fill="#4A4A4A" points="76.1598361 104.211887 73.3934426 104.211887 74.7766393 108.315789 78.9262295 108.315789 78.9262295 102.84392"></polygon>
        <rect id="Rectangle-12" stroke="#4A4A4A" fill="#FFFFFF" x="177.5" y="147.5" width="14" height="117"></rect>
        <rect id="Rectangle-35" stroke="#4A4A4A" x="173.5" y="141.5" width="21" height="6"></rect>
        <path d="M140,137.823956 L230.368852,137.823956" id="Path-33" stroke="#4A4A4A"></path>
        <polyline id="Path-35" stroke="#4A4A4A" fill="#D0021B" points="159 72 171.909836 72 166.377049 75.6479129 171.909836 81.1197822 159 81.1197822"></polyline>
        <path d="M150.852459,113.787659 C144.704918,117.435572 136.713115,117.435572 126.877049,113.787659 C112.122951,108.315789 101.057377,88.2522686 97.3688525,79.1324864" id="Path-36" stroke="#4A4A4A" stroke-dasharray="2,2"></path>
        <path d="M97.3688525,71.8366606 C102.286885,69.4047187 105.97541,69.4047187 108.434426,71.8366606 C112.122951,75.4845735 101.057377,84.6043557 99.2131148,80.9564428 C97.9836066,78.5245009 97.3688525,75.4845735 97.3688525,71.8366606 Z" id="Path-37" stroke="#4A4A4A" fill="#FEC01E"></path>
        <path d="M97.3688525,71.8366606 C94.9098361,66.9727768 92.4508197,65.1488203 89.9918033,66.3647913 C86.3032787,68.1887477 84.4590164,71.8366606 84.4590164,75.4845735 C84.4590164,79.1324864 86.3032787,79.1324864 89.9918033,80.9564428 C92.4508197,82.1724138 94.9098361,80.9564428 97.3688525,77.3085299 L97.3688525,71.8366606 Z" id="Path-38" stroke="#4A4A4A" fill="#FEC01E"></path>
        <path d="M158.5,70.5 L158.5,95.5" id="Line-19" stroke="#4A4A4A" stroke-width="3" stroke-linecap="square"></path>
        <path d="M150.5,136.5 L113.5,136.5" id="Line-20" stroke="#4A4A4A" stroke-width="3" stroke-linecap="square"></path>
    </g>
</svg>