<?xml version="1.0" encoding="utf-8"?>
<!-- Svg Vector Icons : http://www.onlinewebfonts.com/icon -->
<!DOCTYPE svg PUBLIC "-//W3C//DTD SVG 1.1//EN" "http://www.w3.org/Graphics/SVG/1.1/DTD/svg11.dtd">
<svg version="1.1" xmlns="http://www.w3.org/2000/svg" xmlns:xlink="http://www.w3.org/1999/xlink" x="0px" y="0px" viewBox="0 0 1000 1000" enable-background="new 0 0 1000 1000" xml:space="preserve">
<metadata> Svg Vector Icons : http://www.onlinewebfonts.com/icon </metadata>
<g><path d="M500,10C229.4,10,10,229.4,10,500c0,270.6,219.4,490,490,490c270.6,0,490-219.4,490-490C990,229.4,770.7,10,500,10z M500,947.3C252.9,947.3,52.6,747.1,52.6,500C52.6,252.9,252.9,52.6,500,52.6c247.1,0,447.4,200.3,447.4,447.4C947.4,747.1,747.1,947.3,500,947.3z"/><path d="M662.6,677.6c0.6,9.1,0.6,18.5-0.6,28c-9.1,72.7-71.9,124.9-140.4,116.3c-12.3-1.5-23.7-5.4-34.4-10.4l-36.1,27.5c19.4,12.2,41.5,20.5,65.5,23.4c91.3,11.3,174.9-56.7,186.7-151.8c2.6-21.3,1.3-42.1-3.1-61.8L662.6,677.6z"/><path d="M205.8,287.8c-13.3,0-24,10.7-24,24v218.4c0,13.2,10.7,24,24,24c13.2,0,24-10.7,24-24V311.7C229.8,298.5,219,287.8,205.8,287.8z"/><path d="M566.6,554c13.2,0,24-10.7,24-24V311.7c0-13.2-10.7-24-24-24c-13.2,0-24,10.7-24,24v218.4C542.7,543.4,553.4,554,566.6,554z"/></g>
</svg>