<?xml version="1.0" encoding="UTF-8"?>
<svg width="36px" height="42px" viewBox="0 0 36 42" version="1.1" xmlns="http://www.w3.org/2000/svg" xmlns:xlink="http://www.w3.org/1999/xlink">
    <!-- Generator: Sketch 47.1 (45422) - http://www.bohemiancoding.com/sketch -->
    <title>Combined Shape</title>
    <desc>Created with Sketch.</desc>
    <defs></defs>
    <g id="Page-1" stroke="none" stroke-width="1" fill="none" fill-rule="evenodd">
        <path d="M18,31 C25.1797017,31 31,25.1797017 31,18 C31,10.8202983 25.1797017,5 18,5 C10.8202983,5 5,10.8202983 5,18 C5,25.1797017 10.8202983,31 18,31 Z M12.7217907,35.2137309 C5.35617667,32.9579822 0,26.1044922 0,18 C0,8.0588745 8.0588745,0 18,0 C27.9411255,0 36,8.0588745 36,18 C36,26.1044922 30.6438233,32.9579822 23.2782093,35.2137309 L18,42 L12.7217907,35.2137309 Z M15.8632812,20.8227539 L19.0751953,20.8227539 C19.0901693,20.2537406 19.1687818,19.7839374 19.3110352,19.4133301 C19.4532885,19.0427228 19.7078432,18.6814796 20.074707,18.3295898 L21.3662109,17.1279297 C21.9127631,16.5963515 22.3095691,16.0760117 22.5566406,15.5668945 C22.8037122,15.0577774 22.9272461,14.4925161 22.9272461,13.8710938 C22.9272461,12.4485606 22.4686732,11.3517291 21.5515137,10.5805664 C20.6343541,9.8094037 19.3409914,9.42382812 17.6713867,9.42382812 C15.994295,9.42382812 14.6915737,9.84122304 13.7631836,10.6760254 C12.8347935,11.5108277 12.3631186,12.6769131 12.3481445,14.1743164 L16.144043,14.1743164 C16.159017,13.6127902 16.3050116,13.1673194 16.5820312,12.8378906 C16.8590509,12.5084619 17.2221657,12.34375 17.6713867,12.34375 C18.6446989,12.34375 19.1313477,12.9090113 19.1313477,14.0395508 C19.1313477,14.5037458 18.9872247,14.9286276 18.6989746,15.314209 C18.4107245,15.6997903 17.9895861,16.1246722 17.4355469,16.5888672 C16.8815076,17.0530622 16.4809583,17.601478 16.2338867,18.2341309 C15.9868152,18.8667838 15.8632812,19.7296495 15.8632812,20.8227539 Z M15.402832,24.2368164 C15.402832,24.7908556 15.6031067,25.2456851 16.0036621,25.6013184 C16.4042175,25.9569516 16.9039684,26.1347656 17.5029297,26.1347656 C18.101891,26.1347656 18.6016419,25.9569516 19.0021973,25.6013184 C19.4027527,25.2456851 19.6030273,24.7908556 19.6030273,24.2368164 C19.6030273,23.6827772 19.4027527,23.2279477 19.0021973,22.8723145 C18.6016419,22.5166812 18.101891,22.3388672 17.5029297,22.3388672 C16.9039684,22.3388672 16.4042175,22.5166812 16.0036621,22.8723145 C15.6031067,23.2279477 15.402832,23.6827772 15.402832,24.2368164 Z" id="Combined-Shape" fill="#4A4A4A" fill-rule="nonzero"></path>
    </g>
</svg>