<?xml version="1.0" encoding="UTF-8"?>
<svg width="46px" height="50px" viewBox="0 0 46 50" version="1.1" xmlns="http://www.w3.org/2000/svg" xmlns:xlink="http://www.w3.org/1999/xlink">
    <!-- Generator: Sketch 50.2 (55047) - http://www.bohemiancoding.com/sketch -->
    <title>filter - anticon</title>
    <desc>Created with Sketch.</desc>
    <defs></defs>
    <g id="Page-1" stroke="none" stroke-width="1" fill="none" fill-rule="evenodd">
        <path d="M45.4414062,6.65429688 C45.2460928,7.61133291 44.7968785,8.44140273 44.09375,9.14453125 L29.5625,24.4375 L29.5625,47.4648438 C29.5625,48.4414111 29.1132857,49.105467 28.2148438,49.4570312 C27.9414049,49.5351566 27.6875012,49.5742188 27.453125,49.5742188 C26.8281219,49.5742188 26.3203145,49.3593771 25.9296875,48.9296875 L18.6054688,41.3710938 C18.1757791,40.9804668 17.9609375,40.4921904 17.9609375,39.90625 L17.9609375,24.5546875 L1.96484375,9.14453125 C1.30077793,8.44140273 0.871094727,7.61133291 0.67578125,6.65429688 C0.480467773,5.69726084 0.56835752,4.75977021 0.939453125,3.84179688 C1.31054873,2.92382354 1.9062459,2.20117451 2.7265625,1.67382812 C3.5468791,1.14648174 4.44530762,0.8828125 5.421875,0.8828125 L40.6953125,0.8828125 C41.6718799,0.8828125 42.5703084,1.14648174 43.390625,1.67382812 C44.2109416,2.20117451 44.8066388,2.92382354 45.1777344,3.84179688 C45.54883,4.75977021 45.6367197,5.69726084 45.4414062,6.65429688 Z M41.1054688,6.15625 C41.3007822,5.96093652 41.3496099,5.73632939 41.2519531,5.48242188 C41.1542964,5.22851436 40.9687514,5.1015625 40.6953125,5.1015625 L5.421875,5.1015625 C5.14843613,5.1015625 4.95312559,5.22851436 4.8359375,5.48242188 C4.71874941,5.73632939 4.75781152,5.96093652 4.953125,6.15625 L21.59375,22.2109375 C21.984377,22.6015645 22.1796875,23.0898408 22.1796875,23.6757812 L22.1796875,39.0273438 L25.34375,42.4257812 L25.34375,23.5585938 C25.34375,22.9726533 25.5390605,22.484377 25.9296875,22.09375 L41.1054688,6.15625 Z" id="filter---anticon" fill="#4A4A4A"></path>
    </g>
</svg>