<?xml version="1.0" encoding="UTF-8"?>
<svg width="49px" height="49px" viewBox="0 0 49 49" version="1.1" xmlns="http://www.w3.org/2000/svg" xmlns:xlink="http://www.w3.org/1999/xlink">
    <!-- Generator: Sketch 47.1 (45422) - http://www.bohemiancoding.com/sketch -->
    <title>Group 9 Copy 2</title>
    <desc>Created with Sketch.</desc>
    <defs>
        <circle id="path-1" cx="22.5" cy="22.5" r="15"></circle>
        <linearGradient x1="102.374803%" y1="89.2737386%" x2="17.937084%" y2="26.4920689%" id="linearGradient-2">
            <stop stop-color="#FFFFFF" offset="0%"></stop>
            <stop stop-color="#B7BABD" offset="100%"></stop>
        </linearGradient>
    </defs>
    <g id="Page-1" stroke="none" stroke-width="1" fill="none" fill-rule="evenodd">
        <g id="Group-9-Copy-2" transform="translate(2.000000, 2.000000)">
            <path d="M27.890625,0 C30.3906375,0.625003125 32.6171777,1.56249375 34.5703125,2.8125 C33.476557,5.23438711 33.8671781,7.38280313 35.7421875,9.2578125 C36.835943,10.351568 38.2031168,10.8984375 39.84375,10.8984375 C40.7812547,10.8984375 41.5624969,10.7421891 42.1875,10.4296875 C43.4375063,12.3828223 44.3749969,14.6093625 45,17.109375 C42.4999875,18.0468797 41.25,19.8437367 41.25,22.5 C41.25,25.1562633 42.4999875,26.9531203 45,27.890625 C44.3749969,30.3906375 43.4375063,32.6171777 42.1875,34.5703125 C41.5624969,34.2578109 40.7812547,34.1015625 39.84375,34.1015625 C38.2031168,34.1015625 36.835943,34.648432 35.7421875,35.7421875 C33.8671781,37.6171969 33.476557,39.7656129 34.5703125,42.1875 C32.6171777,43.4375062 30.3906375,44.3749969 27.890625,45 C26.9531203,42.4999875 25.1562633,41.25 22.5,41.25 C19.8437367,41.25 18.0468797,42.4999875 17.109375,45 C14.6093625,44.3749969 12.3828223,43.4375062 10.4296875,42.1875 C11.523443,39.7656129 11.1328219,37.6171969 9.2578125,35.7421875 C8.16405703,34.648432 6.7968832,34.1015625 5.15625,34.1015625 C4.21874531,34.1015625 3.43750312,34.2578109 2.8125,34.5703125 C1.56249375,32.6171777 0.625003125,30.3906375 0,27.890625 C2.5000125,26.9531203 3.75,25.1562633 3.75,22.5 C3.75,19.8437367 2.5000125,18.0468797 0,17.109375 C0.625003125,14.6093625 1.56249375,12.3828223 2.8125,10.4296875 C3.43750312,10.7421891 4.21874531,10.8984375 5.15625,10.8984375 C6.7968832,10.8984375 8.16405703,10.351568 9.2578125,9.2578125 C11.1328219,7.38280313 11.523443,5.23438711 10.4296875,2.8125 C12.3828223,1.56249375 14.6093625,0.625003125 17.109375,0 C18.0468797,2.5000125 19.8437367,3.75 22.5,3.75 C25.1562633,3.75 26.9531203,2.5000125 27.890625,0 Z" id="ion-ios-gear-outline---Ionicons" stroke="#979797" stroke-width="2"></path>
            <g id="Oval-5-Copy-3">
                <use fill="#8AC140" fill-rule="evenodd" xlink:href="#path-1"></use>
                <circle stroke="#699130" stroke-width="1" cx="22.5" cy="22.5" r="14.5"></circle>
            </g>
            <path d="M37.4775848,22.6452499 C37.0936171,29.7109522 31.8197314,35.4756008 24.9811957,36.6139282 L14.3181818,29.3181818 L15,25.9090909 L18.4090909,19.7727273 L21.8181818,15 L26.9318182,12.9545455 L37.4775848,22.6452499 Z" id="Combined-Shape-Copy" fill="url(#linearGradient-2)" style="mix-blend-mode: multiply;"></path>
            <path d="M26.8025862,18.3309298 L26.8025862,29.2133641 L28.4160941,29.2133641 L28.4160941,18.3309298 C28.4160941,15.1429694 25.8565157,12.5408383 22.6872085,12.4796322 L22.5712085,12.4831297 C19.343027,12.4831297 16.7169963,15.1062458 16.7169963,18.3309298 L16.7169963,28.5319368 C16.7169963,30.7336056 18.468655,32.5336461 20.6499217,32.6076763 L20.7898212,32.6076763 C23.0381232,32.6076763 24.8667265,30.77849 24.8667265,28.5319368 L24.8632291,18.5046384 C24.8632291,17.2379648 23.8227263,16.2067887 22.5443944,16.2067887 C21.2893791,16.2067887 20.2686955,17.2379648 20.2686955,18.5046384 L20.2686955,24.697524 L21.8822034,24.697524 L21.8822034,18.5046384 C21.8822034,18.1274926 22.1794898,17.8220453 22.5443944,17.8220453 C22.9273694,17.8220453 23.250887,18.1350705 23.250887,18.5046384 L23.250887,28.5360172 C23.250887,29.8394145 22.2284547,30.9096458 20.941962,30.9883393 L20.941962,30.9930026 L20.7898212,30.9953343 C19.4351275,30.9953343 18.3334188,29.890128 18.3334188,28.5313539 L18.3334188,18.3303469 C18.3334188,16.0470701 20.1526955,14.1805773 22.4190678,14.0995521 L22.4190678,14.0972205 L22.5712085,14.0943059 C24.904616,14.0948888 26.8025862,15.9957736 26.8025862,18.3309298" id="Shape-Copy-5" fill="#FFFFFF" fill-rule="nonzero" transform="translate(22.566545, 22.543654) rotate(32.000000) translate(-22.566545, -22.543654) "></path>
        </g>
    </g>
</svg>