<?xml version="1.0" encoding="UTF-8"?>
<svg width="49px" height="49px" viewBox="0 0 49 49" version="1.1" xmlns="http://www.w3.org/2000/svg" xmlns:xlink="http://www.w3.org/1999/xlink">
    <!-- Generator: Sketch 50.2 (55047) - http://www.bohemiancoding.com/sketch -->
    <title>Group 17</title>
    <desc>Created with Sketch.</desc>
    <defs>
        <linearGradient x1="102.374803%" y1="89.2737386%" x2="17.937084%" y2="26.4920689%" id="linearGradient-1">
            <stop stop-color="#FFFFFF" offset="0%"></stop>
            <stop stop-color="#B7BABD" offset="100%"></stop>
        </linearGradient>
    </defs>
    <g id="Page-1" stroke="none" stroke-width="1" fill="none" fill-rule="evenodd">
        <g id="Group-17" transform="translate(2.000000, 2.000000)">
            <path d="M27.890625,0 C30.3906375,0.625003125 32.6171777,1.56249375 34.5703125,2.8125 C33.476557,5.23438711 33.8671781,7.38280313 35.7421875,9.2578125 C36.835943,10.351568 38.2031168,10.8984375 39.84375,10.8984375 C40.7812547,10.8984375 41.5624969,10.7421891 42.1875,10.4296875 C43.4375063,12.3828223 44.3749969,14.6093625 45,17.109375 C42.4999875,18.0468797 41.25,19.8437367 41.25,22.5 C41.25,25.1562633 42.4999875,26.9531203 45,27.890625 C44.3749969,30.3906375 43.4375063,32.6171777 42.1875,34.5703125 C41.5624969,34.2578109 40.7812547,34.1015625 39.84375,34.1015625 C38.2031168,34.1015625 36.835943,34.648432 35.7421875,35.7421875 C33.8671781,37.6171969 33.476557,39.7656129 34.5703125,42.1875 C32.6171777,43.4375062 30.3906375,44.3749969 27.890625,45 C26.9531203,42.4999875 25.1562633,41.25 22.5,41.25 C19.8437367,41.25 18.0468797,42.4999875 17.109375,45 C14.6093625,44.3749969 12.3828223,43.4375062 10.4296875,42.1875 C11.523443,39.7656129 11.1328219,37.6171969 9.2578125,35.7421875 C8.16405703,34.648432 6.7968832,34.1015625 5.15625,34.1015625 C4.21874531,34.1015625 3.43750312,34.2578109 2.8125,34.5703125 C1.56249375,32.6171777 0.625003125,30.3906375 0,27.890625 C2.5000125,26.9531203 3.75,25.1562633 3.75,22.5 C3.75,19.8437367 2.5000125,18.0468797 0,17.109375 C0.625003125,14.6093625 1.56249375,12.3828223 2.8125,10.4296875 C3.43750312,10.7421891 4.21874531,10.8984375 5.15625,10.8984375 C6.7968832,10.8984375 8.16405703,10.351568 9.2578125,9.2578125 C11.1328219,7.38280313 11.523443,5.23438711 10.4296875,2.8125 C12.3828223,1.56249375 14.6093625,0.625003125 17.109375,0 C18.0468797,2.5000125 19.8437367,3.75 22.5,3.75 C25.1562633,3.75 26.9531203,2.5000125 27.890625,0 Z" id="ion-ios-gear-outline---Ionicons" stroke="#979797" stroke-width="2"></path>
            <circle id="Oval-5-Copy-3" stroke="#699130" fill="#8AC140" cx="22.5" cy="22.5" r="14.5"></circle>
            <path d="M37.4775848,22.6452499 C37.0936171,29.7109522 31.8197314,35.4756008 24.9811957,36.6139282 L14.3181818,29.3181818 L15,25.9090909 L18.4090909,19.7727273 L21.8181818,15 L26.9318182,12.9545455 L37.4775848,22.6452499 Z" id="Combined-Shape-Copy" fill="url(#linearGradient-1)" style="mix-blend-mode: multiply;"></path>
            <path d="M22.1389191,11.730765 C20.3163794,11.730765 18.8389191,13.188785 18.8389191,14.9873439 L18.8389191,28.605765 C18.8389191,30.4043239 20.3163794,31.8623439 22.1389191,31.8623439 C23.9614588,31.8623439 25.4389191,30.4043239 25.4389191,28.605765 L25.4389191,14.9873439 C25.4389191,13.188785 23.9614588,11.730765 22.1389191,11.730765 Z M22.1389191,10.5465545 C24.6242005,10.5465545 26.6389191,12.5347636 26.6389191,14.9873439 L26.6389191,28.605765 C26.6389191,31.0583453 24.6242005,33.0465545 22.1389191,33.0465545 C19.6536377,33.0465545 17.6389191,31.0583453 17.6389191,28.605765 L17.6389191,14.9873439 C17.6389191,12.5347636 19.6536377,10.5465545 22.1389191,10.5465545 Z" id="Rectangle-27" fill="#FFFFFF" fill-rule="nonzero" transform="translate(22.138919, 21.796554) rotate(35.000000) translate(-22.138919, -21.796554) "></path>
            <path d="M18.6447363,27.283929 L18.6447363,19.137054 C18.6447363,17.7701492 19.6520956,16.662054 20.8947363,16.662054 C22.137377,16.662054 23.1447363,17.7701492 23.1447363,19.137054 L23.1447363,24.705804 L24.2697363,24.705804 L24.2697363,19.137054 C24.2697363,17.0866969 22.7586973,15.424554 20.8947363,15.424554 C19.0307753,15.424554 17.5197363,17.0866969 17.5197363,19.137054 L17.5197363,27.799554 L18.6447363,27.283929 Z M18.6447363,19.137054 C18.6447363,17.7701492 19.6520956,16.662054 20.8947363,16.662054 C22.137377,16.662054 23.1447363,17.7701492 23.1447363,19.137054 L23.1447363,24.705804 L24.2697363,24.705804 L24.2697363,19.137054 C24.2697363,17.0866969 22.7586973,15.424554 20.8947363,15.424554 C19.0307753,15.424554 17.5197363,17.0866969 17.5197363,19.137054 L17.5197363,27.799554 L18.6447363,27.283929 L18.6447363,19.137054 Z" id="Rectangle-27-Copy" fill="#FFFFFF" fill-rule="nonzero" transform="translate(20.894736, 21.612054) rotate(35.000000) translate(-20.894736, -21.612054) "></path>
        </g>
    </g>
</svg>