<?xml version="1.0" encoding="UTF-8"?>
<svg width="33px" height="38px" viewBox="0 0 33 38" version="1.1" xmlns="http://www.w3.org/2000/svg" xmlns:xlink="http://www.w3.org/1999/xlink">
    <!-- Generator: Sketch 50.2 (55047) - http://www.bohemiancoding.com/sketch -->
    <title>Control-play - simple-line-icons</title>
    <desc>Created with Sketch.</desc>
    <defs></defs>
    <g id="Page-1" stroke="none" stroke-width="1" fill="none" fill-rule="evenodd">
        <path d="M3.23925781,2.66113281 L3.203125,34.9638672 L29.796875,18.8125 L3.23925781,2.66113281 Z M3.23925781,0.348632812 C3.43196711,0.348632812 3.63671767,0.378743188 3.85351562,0.438964844 C4.07031358,0.499186499 4.26301999,0.589517627 4.43164062,0.709960938 L31.0253906,16.8613281 C31.3626319,17.0540374 31.6276032,17.3250308 31.8203125,17.6743164 C32.0130218,18.023602 32.109375,18.4029927 32.109375,18.8125 C32.109375,19.2220073 32.0130218,19.601398 31.8203125,19.9506836 C31.6276032,20.2999692 31.3626319,20.5709626 31.0253906,20.7636719 L4.39550781,36.9150391 C4.22688718,37.0354824 4.03418077,37.1258135 3.81738281,37.1860352 C3.60058485,37.2462568 3.3958343,37.2763672 3.203125,37.2763672 C3.0104157,37.2763672 2.8177093,37.2522789 2.625,37.2041016 C2.4322907,37.1559242 2.25162845,37.0836593 2.08300781,36.9873047 C1.69758922,36.7705067 1.40250753,36.4814471 1.19775391,36.1201172 C0.993000278,35.7587873 0.890625,35.3733744 0.890625,34.9638672 L0.926757812,2.66113281 C0.926757812,2.25162556 1.02913309,1.86621274 1.23388672,1.50488281 C1.43864035,1.14355288 1.73372203,0.854493271 2.11914062,0.637695312 C2.28776126,0.541340664 2.46842352,0.469075762 2.66113281,0.420898438 C2.85384211,0.372721113 3.04654852,0.348632812 3.23925781,0.348632812 Z" id="Control-play---simple-line-icons" fill="#000000"></path>
    </g>
</svg>