<?xml version="1.0" encoding="UTF-8"?>
<svg width="48px" height="46px" viewBox="0 0 48 46" version="1.1" xmlns="http://www.w3.org/2000/svg" xmlns:xlink="http://www.w3.org/1999/xlink">
    <!-- Generator: Sketch 50.2 (55047) - http://www.bohemiancoding.com/sketch -->
    <title>Star Copy 2</title>
    <desc>Created with Sketch.</desc>
    <defs></defs>
    <g id="Page-1" stroke="none" stroke-width="1" fill="none" fill-rule="evenodd">
        <path d="M24,32.6180389 L35.1298438,40.5540091 L31.0215984,27.516549 L42.0084655,19.3837882 L28.3395865,19.262165 L24,6.29987217 L19.6604135,19.262165 L5.99153448,19.3837882 L16.9784016,27.516549 L12.8701562,40.5540091 L24,32.6180389 Z M44.6783581,17.4074653 L47.3304557,17.4310632 L47.461829,17.8353887 L45.3301074,19.4133436 L42.0084655,19.3837882 L44.6783581,17.4074653 Z M22.9454474,3.14993609 L23.7874335,0.634933518 L24.2125665,0.634933518 L25.0545526,3.14993609 L24,6.29987217 L22.9454474,3.14993609 Z M24,35.0743933 L9.16718427,45.6507128 L14.6422697,28.2756043 L0,17.4370207 L18.2166046,17.2749326 L24,0 L29.7833954,17.2749326 L48,17.4370207 L33.3577303,28.2756043 L38.8328157,45.6507128 L24,35.0743933 Z" id="Star-Copy-2" fill="#4A4A4A" fill-rule="nonzero"></path>
    </g>
</svg>