<?xml version="1.0" encoding="UTF-8"?>
<svg width="24px" height="14px" viewBox="0 0 24 14" version="1.1" xmlns="http://www.w3.org/2000/svg" xmlns:xlink="http://www.w3.org/1999/xlink">
    <!-- Generator: Sketch 47.1 (45422) - http://www.bohemiancoding.com/sketch -->
    <title></title>
    <desc>Created with Sketch.</desc>
    <defs></defs>
    <g id="Page-1" stroke="none" stroke-width="1" fill="none" fill-rule="evenodd">
        <path d="M1,1.70898438 C1,1.62304645 1.01790347,1.53352911 1.05371094,1.44042969 C1.08951841,1.34733026 1.14322881,1.26497432 1.21484375,1.19335938 C1.35807363,1.06445248 1.52994691,1 1.73046875,1 C1.93099059,1 2.10286387,1.06445248 2.24609375,1.19335938 L11.9570313,10.9042969 L21.5175781,1.34375 C21.660808,1.20052012 21.8326813,1.12890625 22.0332031,1.12890625 C22.233725,1.12890625 22.4055982,1.20052012 22.5488281,1.34375 C22.692058,1.48697988 22.7636719,1.65885316 22.7636719,1.859375 C22.7636719,2.05989684 22.692058,2.23177012 22.5488281,2.375 L12.4726563,12.4511719 C12.3294264,12.5944018 12.1575531,12.6660156 11.9570313,12.6660156 C11.7565094,12.6660156 11.5846361,12.5944018 11.4414062,12.4511719 L1.21484375,2.24609375 C1.14322881,2.17447881 1.08951841,2.09212286 1.05371094,1.99902344 C1.01790347,1.90592401 1,1.80924529 1,1.70898438 Z" id="" stroke="#4A4A4A" fill="#4A4A4A"></path>
    </g>
</svg>