<?xml version="1.0" encoding="UTF-8"?>
<svg width="60px" height="48px" viewBox="0 0 60 48" version="1.1" xmlns="http://www.w3.org/2000/svg" xmlns:xlink="http://www.w3.org/1999/xlink">
    <!-- Generator: Sketch 47.1 (45422) - http://www.bohemiancoding.com/sketch -->
    <title>condition</title>
    <desc>Created with Sketch.</desc>
    <defs></defs>
    <g id="Page-1" stroke="none" stroke-width="1" fill="none" fill-rule="evenodd">
        <path d="M9.23012727,45.3611661 C5.17872563,45.0078873 2,41.5925337 2,37.4314381 C2,36.7475984 2.55436165,36.1932367 3.23820141,36.1932367 L3.23820141,36.1932367 L29.994503,36.1932367 C30.6783427,36.1932367 31.2327044,36.7475984 31.2327044,37.4314381 C31.2327044,40.4598713 33.6768355,42.9149015 36.6918239,42.9149015 C39.6644931,42.9149015 42.0822179,40.5283067 42.149504,37.5586179 C42.1468163,37.5253157 42.1454464,37.4916414 42.1454464,37.4576471 L42.1454464,12.0221002 C42.1454464,11.9817669 42.1473749,11.941884 42.1511446,11.9025386 C42.1659092,9.7999473 42.9922686,7.89112367 44.331221,6.47640282 L25.6029813,6.47640282 L25.6029813,6.47640282 C24.9191415,6.47640282 24.3647799,5.92204117 24.3647799,5.23820141 C24.3647799,4.55436165 24.9191415,4 25.6029813,4 L49.7177734,4 L49.7177734,4 C49.7518898,4 49.785684,4.00137978 49.8191031,4.0040866 C49.9042273,4.00136905 49.9896903,4 50.0754717,4 C54.4520678,4 58,7.5637535 58,11.9598662 C57.9435372,11.9598662 57.8848115,11.9598662 57.8238994,11.9598662 C57.8238994,12.643706 57.2695377,13.1980676 56.585698,13.1980676 L44.6218492,13.1980676 L44.6218492,37.4576471 L44.6218492,37.4576471 C44.6218492,37.5025444 44.6194596,37.5468836 44.6148007,37.5905444 C44.532655,41.7990341 41.1987967,45.2069683 37.0327111,45.3840724 L37.0440252,45.3913043 L9.22012579,45.3913043 L9.23012727,45.3611661 Z M25.5145383,12.8442958 L37.655273,12.8442958 C38.2902671,12.8442958 38.8050314,13.3590602 38.8050314,13.9940543 C38.8050314,14.6290483 38.2902671,15.1438127 37.655273,15.1438127 L25.5145383,15.1438127 C24.8795443,15.1438127 24.3647799,14.6290483 24.3647799,13.9940543 C24.3647799,13.3590602 24.8795443,12.8442958 25.5145383,12.8442958 Z M25.5145383,17.4433296 L37.655273,17.4433296 L37.655273,17.4433296 C38.2902671,17.4433296 38.8050314,17.958094 38.8050314,18.5930881 L38.8050314,18.5930881 C38.8050314,19.2280821 38.2902671,19.7428465 37.655273,19.7428465 L25.5145383,19.7428465 C24.8795443,19.7428465 24.3647799,19.2280821 24.3647799,18.5930881 C24.3647799,17.958094 24.8795443,17.4433296 25.5145383,17.4433296 Z M25.5145383,22.0423634 L37.655273,22.0423634 L37.655273,22.0423634 C38.2902671,22.0423634 38.8050314,22.5571278 38.8050314,23.1921219 C38.8050314,23.8271159 38.2902671,24.3418803 37.655273,24.3418803 L25.5145383,24.3418803 C24.8795443,24.3418803 24.3647799,23.8271159 24.3647799,23.1921219 C24.3647799,22.5571278 24.8795443,22.0423634 25.5145383,22.0423634 Z M17.2028986,14.5507246 C14.2893964,14.5507246 11.9275362,12.1888645 11.9275362,9.27536232 C11.9275362,6.36186016 14.2893964,4 17.2028986,4 C20.1164007,4 22.4782609,6.36186016 22.4782609,9.27536232 C22.4782609,12.1888645 20.1164007,14.5507246 17.2028986,14.5507246 Z M12.5507246,16.173913 C14.0386473,16.9855072 15.52657,17.3913043 17.0144928,17.3913043 C18.5024155,17.3913043 19.9903382,16.9855072 21.4782609,16.173913 L21.4782609,30.7826087 L17.0144928,26.4347826 L12.5507246,30.7826087 L12.5507246,16.173913 Z" id="Combined-Shape" fill="#4A4A4A"></path>
    </g>
</svg>