<?xml version="1.0" encoding="UTF-8"?>
<svg width="48px" height="44px" viewBox="0 0 48 44" version="1.1" xmlns="http://www.w3.org/2000/svg" xmlns:xlink="http://www.w3.org/1999/xlink">
    <!-- Generator: Sketch 47.1 (45422) - http://www.bohemiancoding.com/sketch -->
    <title>faq</title>
    <desc>Created with Sketch.</desc>
    <defs></defs>
    <g id="Page-1" stroke="none" stroke-width="1" fill="none" fill-rule="evenodd">
        <g id="faq" fill-rule="nonzero" fill="#4A4A4A">
            <path d="M14,20 C12.344,20 11,18.658 11,17 C11,15.342 12.344,14 14,14 C15.658,14 17,15.342 17,17 C17,18.658 15.658,20 14,20 Z M24,20 C22.344,20 21,18.658 21,17 C21,15.342 22.344,14 24,14 C25.658,14 27,15.342 27,17 C27,18.658 25.658,20 24,20 Z M34,20 C32.344,20 31,18.658 31,17 C31,15.342 32.344,14 34,14 C35.658,14 37,15.342 37,17 C37,18.658 35.658,20 34,20 Z M44,4 L44,30 L20.714,30 L12,36.21 L12,30 L4,30 L4,4 L44,4 Z M48,0 L0,0 L0,33.962 L8,33.962 L8,44 L22,33.962 L48,33.962 L48,0 Z" id="Shape"></path>
        </g>
    </g>
</svg>