<?xml version="1.0" encoding="UTF-8"?>
<svg width="44px" height="45px" viewBox="0 0 44 45" version="1.1" xmlns="http://www.w3.org/2000/svg" xmlns:xlink="http://www.w3.org/1999/xlink">
    <!-- Generator: Sketch 47.1 (45422) - http://www.bohemiancoding.com/sketch -->
    <title>lifering</title>
    <desc>Created with Sketch.</desc>
    <defs></defs>
    <g id="Page-1" stroke="none" stroke-width="1" fill="none" fill-rule="evenodd">
        <path d="M22.0000262,0.285669327 C34.1540586,0.285669327 44.0000525,10.1316632 44.0000525,22.2856956 C44.0000525,34.4397279 34.1540586,44.2857218 22.0000262,44.2857218 C9.84599388,44.2857218 0,34.4397279 0,22.2856956 C0,10.1316632 9.84599388,0.285669327 22.0000262,0.285669327 Z M22.0000262,3.42853022 C18.8080581,3.42853022 15.7879652,4.23879904 13.1361764,5.63835428 L17.8995749,10.4017528 C19.2009157,9.959788 20.5759174,9.714252 22.0000262,9.714252 C23.4486887,9.714252 24.7991367,9.959788 26.1004775,10.4017528 L30.8638761,5.63835428 C28.2120872,4.23879904 25.1919943,3.42853022 22.0000262,3.42853022 Z M5.35268495,31.1495454 L10.1160835,26.3861469 C9.67411868,25.084806 9.42858267,23.7098044 9.42858267,22.2856956 C9.42858267,20.8370331 9.67411868,19.4865851 10.1160835,18.1852442 L5.35268495,13.4218457 C3.95312971,16.0736346 3.14286089,19.0937275 3.14286089,22.2856956 C3.14286089,25.4776636 3.95312971,28.4977565 5.35268495,31.1495454 Z M22.0000262,41.1428609 C25.1919943,41.1428609 28.2120872,40.3325921 30.8638761,38.9330368 L26.1004775,34.1696383 C24.7991367,34.6116031 23.4486887,34.8571391 22.0000262,34.8571391 C20.5759174,34.8571391 19.2009157,34.6116031 17.8995749,34.1696383 L13.1361764,38.9330368 C15.7879652,40.3325921 18.8080581,41.1428609 22.0000262,41.1428609 Z M22.0000262,31.7142782 C27.2053896,31.7142782 31.4286089,27.4910589 31.4286089,22.2856956 C31.4286089,17.0803322 27.2053896,12.8571129 22.0000262,12.8571129 C16.7946629,12.8571129 12.5714436,17.0803322 12.5714436,22.2856956 C12.5714436,27.4910589 16.7946629,31.7142782 22.0000262,31.7142782 Z M33.883969,26.3861469 L38.6473675,31.1495454 C40.0469227,28.4977565 40.8571916,25.4776636 40.8571916,22.2856956 C40.8571916,19.0937275 40.0469227,16.0736346 38.6473675,13.4218457 L33.883969,18.1852442 C34.3259338,19.4865851 34.5714698,20.8615867 34.5714698,22.2856956 C34.5714698,23.7098044 34.3259338,25.084806 33.883969,26.3861469 Z" id="lifering" fill="#4A4A4A"></path>
    </g>
</svg>