<?xml version="1.0" encoding="UTF-8"?>
<svg width="51px" height="45px" viewBox="0 0 51 45" version="1.1" xmlns="http://www.w3.org/2000/svg" xmlns:xlink="http://www.w3.org/1999/xlink">
    <!-- Generator: Sketch 47.1 (45422) - http://www.bohemiancoding.com/sketch -->
    <title>loud copy</title>
    <desc>Created with Sketch.</desc>
    <defs></defs>
    <g id="Page-1" stroke="none" stroke-width="1" fill="none" fill-rule="evenodd">
        <path d="M47.3571993,15.4999696 C49.377849,15.4999696 51.0000608,17.1221814 51.0000608,19.1428311 C51.0000608,21.1634808 49.377849,22.7856926 47.3571993,22.7856926 L47.3571993,33.714277 C47.3571993,35.7064669 45.7065277,37.3571385 43.7143378,37.3571385 C38.6484836,33.1450799 30.4805051,27.3677293 20.6049353,26.5423935 C17.2182125,27.6807877 16.0513584,31.6367076 18.2712271,33.913496 C16.2790373,37.1863794 18.8404242,39.4916277 21.8571689,41.8537957 C20.0926579,45.325898 12.7500152,45.3828177 10.1317085,42.96373 C8.4810369,37.8978758 6.03348934,32.8320215 8.02567921,26.4285541 L4.55357686,26.4285541 C2.04910959,26.4285541 0,24.3794445 0,21.8749772 L0,16.410685 C0,13.9062177 2.04910959,11.8571081 4.55357686,11.8571081 L18.2143074,11.8571081 C29.1428919,11.8571081 38.2500456,5.48210052 43.7143378,0.92852366 C45.7065277,0.92852366 47.3571993,2.57919527 47.3571993,4.57138515 L47.3571993,15.4999696 Z M43.7143378,32.6897222 L43.7143378,5.53902023 C36.2863156,11.2309913 29.0859722,14.5038747 21.8571689,15.3007506 L21.8571689,22.9849116 C29.0859722,23.7817875 36.2863156,26.9977512 43.7143378,32.6897222 Z" id="loud-copy" fill="#4A4A4A"></path>
    </g>
</svg>