<?xml version="1.0" encoding="UTF-8"?>
<svg width="41px" height="41px" viewBox="0 0 41 41" version="1.1" xmlns="http://www.w3.org/2000/svg" xmlns:xlink="http://www.w3.org/1999/xlink">
    <!-- Generator: Sketch 47.1 (45422) - http://www.bohemiancoding.com/sketch -->
    <title>ion-ios-search - Ionicons Copy</title>
    <desc>Created with Sketch.</desc>
    <defs></defs>
    <g id="Page-1" stroke="none" stroke-width="1" fill="none" fill-rule="evenodd">
        <path d="M40.5,38.5742188 L38.0742188,41 L26.15625,29.0820312 C23.2734231,31.4023554 19.8984568,32.5625 16.03125,32.5625 C11.6015404,32.5625 7.82228127,30.9980625 4.69335938,27.8691406 C1.56443748,24.7402187 0,20.9609596 0,16.53125 C0,12.1015404 1.56443748,8.32228127 4.69335938,5.19335938 C7.82228127,2.06443748 11.6015404,0.5 16.03125,0.5 C20.4609596,0.5 24.2402187,2.06443748 27.3691406,5.19335938 C30.4980625,8.32228127 32.0625,12.1015404 32.0625,16.53125 C32.0625,20.328144 30.9023554,23.6679543 28.5820312,26.5507812 L40.5,38.5742188 Z M5.90625,26.7617188 C8.64845121,29.50392 12.0234175,30.875 16.03125,30.875 C19.9687697,30.875 23.3437359,29.4687641 26.15625,26.65625 C28.9687641,23.8437359 30.375,20.4687697 30.375,16.53125 C30.375,12.5937303 28.9687641,9.21876406 26.15625,6.40625 C23.3437359,3.59373594 19.9687697,2.1875 16.03125,2.1875 C12.0937303,2.1875 8.71876406,3.59373594 5.90625,6.40625 C3.09373594,9.21876406 1.6875,12.5937303 1.6875,16.53125 C1.6875,20.5390825 3.09373594,23.9492047 5.90625,26.7617188 Z" id="ion-ios-search---Ionicons-Copy" fill="#4A4A4A"></path>
    </g>
</svg>