<?xml version="1.0" encoding="UTF-8"?>
<svg width="43px" height="44px" viewBox="0 0 43 44" version="1.1" xmlns="http://www.w3.org/2000/svg" xmlns:xlink="http://www.w3.org/1999/xlink">
    <!-- Generator: Sketch 47.1 (45422) - http://www.bohemiancoding.com/sketch -->
    <title>enter copy</title>
    <desc>Created with Sketch.</desc>
    <defs></defs>
    <g id="Page-1" stroke="none" stroke-width="1" fill="none" fill-rule="evenodd">
        <path d="M18.6025391,26.4941406 L21.7099609,23.3867188 L1.51171875,23.3867188 C1.09179478,23.3867188 0.734864751,23.2397476 0.440917969,22.9458008 C0.146971187,22.651854 0,22.294924 0,21.875 C0,21.455076 0.146971187,21.098146 0.440917969,20.8041992 C0.734864751,20.5102524 1.09179478,20.3632812 1.51171875,20.3632812 L21.7099609,20.3632812 L18.6025391,17.2558594 C18.2945948,16.9479151 18.140625,16.5839865 18.140625,16.1640625 C18.140625,15.7441385 18.2875962,15.3872085 18.581543,15.0932617 C18.8754898,14.7993149 19.2324198,14.6523438 19.6523438,14.6523438 C20.0722677,14.6523438 20.4361964,14.8063136 20.7441406,15.1142578 L26.4550781,20.7832031 C26.7350274,21.0911474 26.875,21.455076 26.875,21.875 C26.875,22.294924 26.7350274,22.6588526 26.4550781,22.9667969 L20.7441406,28.6357422 C20.4361964,28.9436864 20.0722677,29.0976562 19.6523438,29.0976562 C19.2324198,29.0976562 18.8754898,28.9506851 18.581543,28.6567383 C18.2875962,28.3627915 18.140625,28.0058615 18.140625,27.5859375 C18.140625,27.1660135 18.2945948,26.8020849 18.6025391,26.4941406 Z M41.3203125,13.5185547 C42.4401098,16.1780732 43,18.9635271 43,21.875 C43,24.7864729 42.4401098,27.5719268 41.3203125,30.2314453 C40.2285102,32.806979 38.688812,35.0885317 36.7011719,37.0761719 C34.7135317,39.063812 32.431979,40.6035102 29.8564453,41.6953125 C27.1969268,42.8151098 24.4114729,43.375 21.5,43.375 C18.0566234,43.375 14.8232573,42.6051509 11.7998047,41.0654297 C8.86033687,39.5816983 6.38282258,37.5241017 4.3671875,34.8925781 C4.11523312,34.5566389 4.01725232,34.178713 4.07324219,33.7587891 C4.12923205,33.3388651 4.32519363,33.0029309 4.66113281,32.7509766 C4.99707199,32.4990222 5.3749979,32.4010414 5.79492188,32.4570312 C6.21484585,32.5130211 6.55077999,32.7089827 6.80273438,33.0449219 C8.51042521,35.3125113 10.6240108,37.0901628 13.1435547,38.3779297 C15.7750783,39.6936915 18.5605322,40.3515625 21.5,40.3515625 C24.0195438,40.3515625 26.4130746,39.8616585 28.6806641,38.8818359 C30.8922637,37.9580032 32.8518795,36.6422611 34.5595703,34.9345703 C36.2672611,33.2268795 37.5970004,31.2672637 38.5488281,29.0556641 C39.5006558,26.7880746 39.9765625,24.3945438 39.9765625,21.875 C39.9765625,19.3554562 39.4866585,16.9619254 38.5068359,14.6943359 C37.5830032,12.4827363 36.2672611,10.5231205 34.5595703,8.81542969 C32.8518795,7.10773886 30.8922637,5.79199681 28.6806641,4.86816406 C26.4130746,3.88834146 24.0195438,3.3984375 21.5,3.3984375 C18.5605322,3.3984375 15.7750783,4.05630853 13.1435547,5.37207031 C10.6240108,6.65983717 8.51042521,8.43748866 6.80273438,10.7050781 C6.55077999,11.0410173 6.21484585,11.2369789 5.79492188,11.2929688 C5.3749979,11.3489586 4.99707199,11.2509778 4.66113281,10.9990234 C4.32519363,10.7470691 4.12923205,10.4111349 4.07324219,9.99121094 C4.01725232,9.57128696 4.11523312,9.19336105 4.3671875,8.85742188 C6.38282258,6.2258983 8.86033687,4.16830169 11.7998047,2.68457031 C14.8232573,1.14484907 18.0566234,0.375 21.5,0.375 C24.4114729,0.375 27.1969268,0.934890234 29.8564453,2.0546875 C32.431979,3.14648983 34.7135317,4.68618798 36.7011719,6.67382812 C38.688812,8.66146827 40.2285102,10.943021 41.3203125,13.5185547 Z" id="enter-copy" fill="#4A4A4A"></path>
    </g>
</svg>