<?xml version="1.0" encoding="UTF-8"?>
<svg width="125px" height="133px" viewBox="0 0 125 133" version="1.1" xmlns="http://www.w3.org/2000/svg" xmlns:xlink="http://www.w3.org/1999/xlink">
    <!-- Generator: Sketch 47.1 (45422) - http://www.bohemiancoding.com/sketch -->
    <title>Group 13</title>
    <desc>Created with Sketch.</desc>
    <defs></defs>
    <g id="Page-1" stroke="none" stroke-width="1" fill="none" fill-rule="evenodd">
        <g id="Group-13">
            <path d="M18,85 L108,85 C111.313708,85 114,87.6862915 114,91 L125,127 C125,130.313708 122.313708,133 119,133 L6,133 C2.6862915,133 0,130.313708 0,127 L12,91 C12,87.6862915 14.6862915,85 18,85 Z" id="Rectangle-16-Copy" fill="#F46E02"></path>
            <path d="M18,82 L108,82 C111.313708,82 114,84.6862915 114,88 L125,124 C125,127.313708 122.313708,130 119,130 L6,130 C2.6862915,130 0,127.313708 0,124 L12,88 C12,84.6862915 14.6862915,82 18,82 Z" id="Rectangle-16" fill="#FF8802"></path>
            <path d="M74.96,81 L107,81 C110.313708,81 113,83.6862915 113,87 L124,123 C124,126.313708 121.313708,129 118,129 L55.6818182,129 L24,95 L74.96,81 Z" id="Combined-Shape" fill="#F46E02"></path>
            <path d="M25,93.0155712 C41,45.6822378 50.6666667,17.6822378 54,9.01557117 C59,-3.98442883 67,-1.98442883 71,9.01557117 C73.6666667,16.3489045 83,44.3489045 99,93.0155712 C91,102.348904 78.6666667,107.348904 62,108.015571 C45.3333333,108.682238 33,103.682238 25,93.0155712 Z" id="Path-7" fill="#FF8802"></path>
            <path d="M28,93.7443332 C47.3333333,38.4109998 57.6666667,9.74433316 59,7.74433316 C61,4.74433316 63,5.74433316 63,9.74433316 C63,12.4109998 57.3596431,42.4109998 46.0789292,99.7443332 L28,93.7443332 Z" id="Path-8" fill="#FFFFFF" opacity="0.267266757"></path>
            <path d="M33,69 C46,84 75,88 92,71 C93,75 98,88.4723151 100,95 C85,113 41,115 25,95 C27,89.1299274 31,74 33,69 Z" id="Path-9" fill="#FFFFFF"></path>
            <path d="M49.52,18 C57,23 66,25 75.04,18.88 C76.36,22.4 82.12,40.1278186 83,43 C76.4,50.92 51,52 42,42 C43.32,37.7679126 48.2,22.84 49.52,18 Z" id="Path-9-Copy" fill="#FFFFFF"></path>
        </g>
    </g>
</svg>